<?xml version="1.0" encoding="UTF-8" standalone="no"?>
<!-- Created with Inkscape (http://www.inkscape.org/) -->

<svg
   xmlns:dc="http://purl.org/dc/elements/1.1/"
   xmlns:cc="http://creativecommons.org/ns#"
   xmlns:rdf="http://www.w3.org/1999/02/22-rdf-syntax-ns#"
   xmlns:svg="http://www.w3.org/2000/svg"
   xmlns="http://www.w3.org/2000/svg"
   xmlns:sodipodi="http://sodipodi.sourceforge.net/DTD/sodipodi-0.dtd"
   xmlns:inkscape="http://www.inkscape.org/namespaces/inkscape"
   width="200mm"
   height="200mm"
   viewBox="0 0 200 200"
   version="1.1"
   id="svg8"
   inkscape:version="0.92.3 (2405546, 2018-03-11)"
   sodipodi:docname="chddzc-1.svg">
  <defs
     id="defs2" />
  <sodipodi:namedview
     id="base"
     pagecolor="#ffffff"
     bordercolor="#666666"
     borderopacity="1.0"
     inkscape:pageopacity="0.0"
     inkscape:pageshadow="2"
     inkscape:zoom="0.7"
     inkscape:cx="461.32181"
     inkscape:cy="382.77044"
     inkscape:document-units="mm"
     inkscape:current-layer="layer1"
     showgrid="true"
     inkscape:snap-nodes="true"
     inkscape:snap-global="true"
     inkscape:snap-grids="true"
     inkscape:window-width="1920"
     inkscape:window-height="977"
     inkscape:window-x="1920"
     inkscape:window-y="28"
     inkscape:window-maximized="1">
    <sodipodi:guide
       position="99.999999,99.999999"
       orientation="0,-793.70079"
       id="guide14"
       inkscape:locked="false" />
    <sodipodi:guide
       position="99.999999,99.999999"
       orientation="1122.5197,0"
       id="guide16"
       inkscape:locked="false" />
    <inkscape:grid
       type="xygrid"
       id="grid22"
       units="mm"
       spacingx="2"
       spacingy="2" />
  </sodipodi:namedview>
  <metadata
     id="metadata5">
    <rdf:RDF>
      <cc:Work
         rdf:about="">
        <dc:format>image/svg+xml</dc:format>
        <dc:type
           rdf:resource="http://purl.org/dc/dcmitype/StillImage" />
        <dc:title />
      </cc:Work>
    </rdf:RDF>
  </metadata>
  <g
     inkscape:label="レイヤー 1"
     inkscape:groupmode="layer"
     id="layer1"
     transform="translate(0,-97)"
     style="display:inline">
    <rect
       style="opacity:1;fill:#ffffff;fill-opacity:1;stroke:#000000;stroke-width:5;stroke-linejoin:bevel;stroke-miterlimit:4;stroke-dasharray:none;stroke-opacity:1"
       id="rect27"
       width="140"
       height="180"
       x="30"
       y="107"
       ry="0" />
    <path
       style="fill:#000000;fill-opacity:0.97213619;fill-rule:evenodd;stroke:none;stroke-width:2.99999475;stroke-miterlimit:4;stroke-dasharray:none;stroke-opacity:1"
       d="M 100,117 A 59.999895,59.999895 0 0 0 40.000048,176.99996 59.999895,59.999895 0 0 0 100,236.99991 59.999895,59.999895 0 0 0 159.99996,176.99996 59.999895,59.999895 0 0 0 100,117 Z m 0,43.20039 A 16.799968,16.799968 0 0 1 116.79957,176.99996 16.799968,16.799968 0 0 1 100,193.80014 16.799968,16.799968 0 0 1 83.199815,176.99996 16.799968,16.799968 0 0 1 100,160.20039 Z"
       id="path4562"
       inkscape:connector-curvature="0" />
    <path
       style="opacity:1;fill:#000000;fill-opacity:0.94720495;stroke:#ffffff;stroke-width:3;stroke-linejoin:round;stroke-miterlimit:4;stroke-dasharray:none;stroke-opacity:1"
       d="m 117.18538,215 -61.294163,8.24769 a 15,15 0 0 0 -9.296794,11.77146 15,15 0 0 0 5.546242,13.93711 15,15 0 0 0 14.843044,2.16562 z"
       id="rect4611"
       inkscape:connector-curvature="0" />
    <rect
       style="opacity:1;fill:#000000;fill-opacity:0.94720495;stroke:none;stroke-width:1;stroke-linejoin:round;stroke-miterlimit:4;stroke-dasharray:none;stroke-opacity:1"
       id="rect4620"
       width="100"
       height="20"
       x="50"
       y="257" />
  </g>
</svg>
